<svg xmlns="http://www.w3.org/2000/svg" version="1.1" xmlns:xlink="http://www.w3.org/1999/xlink" xmlns:svgjs="http://svgjs.dev/svgjs" width="1440" height="560" preserveAspectRatio="none" viewBox="0 0 1440 560"><g mask="url(&quot;#SvgjsMask1003&quot;)" fill="none"><rect width="1440" height="560" x="0" y="0" fill="#0e2a47"></rect><path d="M1248.7452846025653 297.38504178608343L1271.063506723892 138.58263984655068 1112.2611047843593 116.26441772522406 1089.9428826630326 275.0668196647568z" fill="rgba(28, 83, 142, 0.4)" class="triangle-float1"></path><path d="M1163.561,730.991C1210.12,733.801,1252.856,705.063,1275.939,664.531C1298.787,624.413,1299.311,574.559,1275.005,535.307C1251.854,497.92,1207.461,480.48,1163.561,483.051C1123.884,485.374,1091.485,512.163,1072.642,547.157C1054.841,580.216,1055.808,618.595,1072.453,652.251C1091.525,690.814,1120.617,728.399,1163.561,730.991" fill="rgba(28, 83, 142, 0.4)" class="triangle-float2"></path><path d="M1147.9690837138598 362.6501389468797L1226.652779901522 510.63264875828645 1374.6352897129289 431.94895257062416 1295.9515935252666 283.9664427592174z" fill="rgba(28, 83, 142, 0.4)" class="triangle-float2"></path><path d="M1387.1935284470835-57.83107937122689L1251.4128472259172-84.22417016192723 1225.0197564352168 51.55651105923921 1360.800437656383 77.94960184993955z" fill="rgba(28, 83, 142, 0.4)" class="triangle-float1"></path><path d="M413.344,510.962C428.263,510.289,443.641,505.749,450.958,492.73C458.158,479.918,454.089,464.459,446.578,451.826C439.265,439.525,427.611,430.579,413.344,429.463C396.743,428.165,378.841,431.897,369.697,445.814C359.77,460.922,359.293,481.393,369.355,496.411C378.568,510.163,396.808,511.708,413.344,510.962" fill="rgba(28, 83, 142, 0.4)" class="triangle-float3"></path><path d="M1082.7917137880327 272.22741479836503L1077.2335965438826 192.7426350741023 960.7854855795636 240.8222008024585z" fill="rgba(28, 83, 142, 0.4)" class="triangle-float2"></path><path d="M656.9046187478543 229.50290979616761L765.6895545003579 294.86749363329034 831.0541383374806 186.0825578807867 722.269202584977 120.71797404366401z" fill="rgba(28, 83, 142, 0.4)" class="triangle-float3"></path><path d="M571.7282047835345 559.0928222202187L716.7760794758927 595.4041810144251 682.9465106190493 469.1505112425354z" fill="rgba(28, 83, 142, 0.4)" class="triangle-float2"></path><path d="M250.54164495633896 203.79674019607802L374.25208643532983 165.97466261915434 336.43000885840615 42.26422114016347 212.7195673794153 80.08629871708713z" fill="rgba(28, 83, 142, 0.4)" class="triangle-float2"></path><path d="M367.3138465094858 309.67307864701576L476.88988290747307 419.4581709393957 514.264136094014 289.1186605488856z" fill="rgba(28, 83, 142, 0.4)" class="triangle-float1"></path><path d="M418.1968790416655-0.23811217136880458L287.1784344761157 81.63129837247448 369.04784501995897 212.6497429380243 500.0662895855088 130.78033239418102z" fill="rgba(28, 83, 142, 0.4)" class="triangle-float3"></path><path d="M111.425,257.477C135.747,258.277,155.24,239.094,166.645,217.597C177.29,197.534,178.407,173.25,166.311,154.027C154.899,135.891,132.842,130.516,111.425,129.842C88.368,129.116,61.847,130.455,50.209,150.372C38.512,170.391,50.653,194.03,62.158,214.16C73.788,234.508,88.001,256.706,111.425,257.477" fill="rgba(28, 83, 142, 0.4)" class="triangle-float3"></path></g><defs><mask id="SvgjsMask1003"><rect width="1440" height="560" fill="#ffffff"></rect></mask><style>
                @keyframes float1 {
                    0%{transform: translate(0, 0)}
                    50%{transform: translate(-10px, 0)}
                    100%{transform: translate(0, 0)}
                }

                .triangle-float1 {
                    animation: float1 5s infinite;
                }

                @keyframes float2 {
                    0%{transform: translate(0, 0)}
                    50%{transform: translate(-5px, -5px)}
                    100%{transform: translate(0, 0)}
                }

                .triangle-float2 {
                    animation: float2 4s infinite;
                }

                @keyframes float3 {
                    0%{transform: translate(0, 0)}
                    50%{transform: translate(0, -10px)}
                    100%{transform: translate(0, 0)}
                }

                .triangle-float3 {
                    animation: float3 6s infinite;
                }
            </style></defs></svg>