<svg xmlns="http://www.w3.org/2000/svg" version="1.1" xmlns:xlink="http://www.w3.org/1999/xlink" xmlns:svgjs="http://svgjs.dev/svgjs" width="1440" height="560" preserveAspectRatio="none" viewBox="0 0 1440 560"><g mask="url(&quot;#SvgjsMask1005&quot;)" fill="none"><rect width="1440" height="560" x="0" y="0" fill="#0e2a47"></rect><path d="M577.9 570.96C730.08 566.8 840.04 352.09 1143.16 344.46 1446.28 336.83 1557.46 135.15 1708.42 131.66" stroke="rgba(51,121,194,0.58)" stroke-width="2"></path><path d="M325.81 577.79C485.16 568.5 605.27 276.62 888.67 276.39 1172.07 276.16 1304.69 442.61 1451.53 444.39" stroke="rgba(51,121,194,0.58)" stroke-width="2"></path><path d="M770.67 632.47C890.33 618.63 925.06 378.96 1162.94 352.65 1400.83 326.34 1436.99 96.33 1555.22 83.85" stroke="rgba(51,121,194,0.58)" stroke-width="2"></path><path d="M353.19 592.12C507.95 587.53 611.85 367.5 925.61 355.74 1239.36 343.98 1338.88 83.11 1498.02 75.74" stroke="rgba(51,121,194,0.58)" stroke-width="2"></path><path d="M444.86 644.76C569.8 644.71 681.54 602.42 942.48 598.7 1203.41 594.98 1298.95 338.31 1440.09 329.9" stroke="rgba(51,121,194,0.58)" stroke-width="2"></path></g><defs><mask id="SvgjsMask1005"><rect width="1440" height="560" fill="#ffffff"></rect></mask></defs></svg>