<svg xmlns="http://www.w3.org/2000/svg" version="1.1" xmlns:xlink="http://www.w3.org/1999/xlink" xmlns:svgjs="http://svgjs.dev/svgjs" width="1440" height="560" preserveAspectRatio="none" viewBox="0 0 1440 560"><g mask="url(&quot;#SvgjsMask1016&quot;)" fill="none"><rect width="1440" height="560" x="0" y="0" fill="#0e2a47"></rect><path d="M0,398.937C82.755,407.585,166.491,410.152,243.773,379.318C331.56,344.293,422.189,296.548,466.233,212.921C510.982,127.957,494.873,25.854,479.89,-68.998C465.079,-162.764,442.701,-257.994,380.517,-329.72C318.341,-401.436,231.399,-461.622,136.544,-465.028C46.089,-468.276,-18.791,-382.895,-101.901,-347.044C-171.956,-316.824,-250.853,-315.518,-312.916,-271.143C-386.83,-218.295,-475.94,-160.228,-488.955,-70.301C-501.97,19.626,-428.502,97.293,-377.079,172.206C-333.05,236.347,-279.764,291.484,-213.09,331.574C-147.927,370.755,-75.623,391.034,0,398.937" fill="#0a1f35"></path><path d="M1440 941.6510000000001C1508.105 924.625 1554.52 868.043 1613.751 830.3620000000001 1673.336 792.456 1753.379 780.332 1789.226 719.486 1825.891 657.252 1823.492 577.196 1803.855 507.686 1785.426 442.454 1722.372 404.38599999999997 1684.353 348.267 1639.576 282.172 1629.6390000000001 189.13600000000002 1560.734 148.81799999999998 1488.177 106.363 1392.573 101.19099999999997 1314.241 131.70499999999998 1237.692 161.524 1198.278 242.255 1150.084 308.786 1105.982 369.668 1066.316 431.099 1045.118 503.225 1021.1410000000001 584.806 991.126 671.843 1019.8589999999999 751.8720000000001 1049.277 833.808 1120.393 898.027 1199.732 933.864 1274.269 967.5319999999999 1360.654 961.4870000000001 1440 941.6510000000001" fill="#12355a"></path></g><defs><mask id="SvgjsMask1016"><rect width="1440" height="560" fill="#ffffff"></rect></mask></defs></svg>