<svg xmlns="http://www.w3.org/2000/svg" version="1.1" xmlns:xlink="http://www.w3.org/1999/xlink" xmlns:svgjs="http://svgjs.dev/svgjs" width="1440" height="560" preserveAspectRatio="none" viewBox="0 0 1440 560"><g mask="url(&quot;#SvgjsMask1000&quot;)" fill="none"><rect width="1440" height="560" x="0" y="0" fill="#0e2a47"></rect><path d="M0,694.066C125.799,671.931,209.006,560.325,309.117,480.995C398.522,410.148,498.736,352.617,555.647,253.756C615.989,148.935,650.004,28.578,638.89,-91.859C627.459,-215.726,591.93,-351.859,492.822,-427.033C396.007,-500.468,257.938,-449.448,138.433,-471.459C35.158,-490.48,-60.264,-577.959,-160.733,-547.406C-261.149,-516.869,-295.331,-394.698,-366.785,-317.821C-441.603,-237.325,-566.647,-192.171,-590.597,-84.915C-614.647,22.79,-518.621,116.75,-487.462,222.617C-449.632,351.15,-484.249,510.499,-387.939,603.645C-290.522,697.861,-133.474,717.551,0,694.066" fill="#0b2239"></path><path d="M1440 1004.0129999999999C1521.968 1000.931 1561.815 901.23 1629.828 855.3779999999999 1695.748 810.937 1794.056 808.8240000000001 1832.636 739.311 1871.3899999999999 669.485 1841.487 582.745 1824.443 504.725 1808.449 431.512 1782.247 362.36400000000003 1737.204 302.471 1689.686 239.28699999999998 1631.329 185.89499999999998 1559.623 152.603 1479.6779999999999 115.48599999999999 1390.217 77.60500000000002 1305.535 102.055 1220.777 126.52600000000001 1155.009 200.601 1117.241 280.328 1083.383 351.8 1117.9189999999999 433.915 1111.005 512.698 1104.609 585.583 1053.222 656.46 1078.1979999999999 725.23 1103.481 794.845 1182.103 824.8 1240.771 870.006 1305.479 919.866 1358.369 1007.082 1440 1004.0129999999999" fill="#113255"></path></g><defs><mask id="SvgjsMask1000"><rect width="1440" height="560" fill="#ffffff"></rect></mask></defs></svg>